<svg width="39" height="52" viewBox="0 0 39 52" fill="none" xmlns="http://www.w3.org/2000/svg">
<g clip-path="url(#clip0_208_1939)">
<path d="M38.3 49.6601C33.25 41.5601 25.3 23.4901 35.8 1.10008C36.16 0.340078 35.2 -0.359922 34.58 0.210078L7.17004 25.2101C6.82004 25.5301 6.84004 26.0801 7.20004 26.3801L37.15 50.6501C37.83 51.2001 38.75 50.3901 38.29 49.6501L38.3 49.6601Z" fill="#BE1E2D"/>
<path d="M0.539766 51.6001H5.96977C6.268 51.6001 6.50977 51.3583 6.50977 51.0601L6.50977 0.570095C6.50977 0.271862 6.268 0.030098 5.96977 0.030098H0.539766C0.241532 0.030098 -0.000234604 0.271862 -0.000234604 0.570095L-0.000234604 51.0601C-0.000234604 51.3583 0.241532 51.6001 0.539766 51.6001Z" fill="#BE1E2D"/>
</g>
<defs>
<clipPath id="clip0_208_1939">
<rect width="38.42" height="51.6" fill="white"/>
</clipPath>
</defs>
</svg>
