<svg width="40" height="55" viewBox="0 0 40 55" fill="none" xmlns="http://www.w3.org/2000/svg">
<g clip-path="url(#clip0_208_1375)">
<path d="M7.05859 3.62117C7.05859 3.62117 7.13155 3.63937 7.16803 3.63937C11.6186 4.48552 15.0294 4.13069 17.3094 3.64847C22.4804 2.56576 25.2802 0.318444 30.7795 0.454921C35.0112 0.555003 36.0417 2.07444 36.5342 2.57485C38.194 4.29446 37.9022 7.5335 37.884 8.13399" stroke="#BE1E2D" stroke-linejoin="round"/>
<path d="M16.7349 18.5791C16.7349 18.6337 39.5438 17.7875 39.5438 17.7329" stroke="#BE1E2D" stroke-linejoin="round"/>
<path d="M7.24121 53.153C29.9589 13.8296 8.44504 3.99416 7.35065 3.82129" stroke="#BE1E2D" stroke-width="0.75" stroke-linejoin="round"/>
<path d="M7.24121 53.153C7.24121 53.153 30.5426 16.177 7.35065 3.82129C7.35065 3.82129 26.1195 18.1604 7.24121 53.153Z" fill="#BE1E2D"/>
<path d="M6.14259 54.3433C8.33351 53.1457 9.30514 50.7101 8.31281 48.9033C7.32047 47.0966 4.73994 46.6028 2.54903 47.8005C0.358117 48.9981 -0.613521 51.4337 0.378814 53.2404C1.37115 55.0472 3.95168 55.541 6.14259 54.3433Z" fill="#BE1E2D"/>
<path d="M11.5078 42.6158C13.6987 41.4181 14.6704 38.9826 13.678 37.1758C12.6857 35.369 10.1052 34.8753 7.91426 36.0729C5.72335 37.2706 4.75171 39.7061 5.74405 41.5129C6.73638 43.3197 9.31691 43.8134 11.5078 42.6158Z" fill="#BE1E2D"/>
</g>
<defs>
<clipPath id="clip0_208_1375">
<rect width="40" height="55" fill="white"/>
</clipPath>
</defs>
</svg>
