<svg width="11" height="73" viewBox="0 0 11 73" fill="none" xmlns="http://www.w3.org/2000/svg">
<path d="M4.67977 12.264L0.0237696 -9.53674e-07H1.75177L4.89577 8.436C4.95977 8.612 5.02777 8.804 5.09977 9.012C5.17977 9.212 5.25577 9.424 5.32777 9.648C5.39977 9.424 5.47177 9.212 5.54377 9.012C5.62377 8.804 5.69577 8.612 5.75977 8.436L8.83177 -9.53674e-07H10.5118L5.85577 12.264H4.67977ZM4.79977 41.784V30H6.47977V41.784H4.79977ZM1.41577 42.264V40.752H9.86377V42.264H1.41577ZM1.41577 31.512V30H5.63977V31.512H1.41577ZM5.63977 27.48C5.32777 27.48 5.06377 27.376 4.84777 27.168C4.63977 26.952 4.53577 26.688 4.53577 26.376C4.53577 26.048 4.63977 25.776 4.84777 25.56C5.06377 25.336 5.32777 25.224 5.63977 25.224C5.96777 25.224 6.23177 25.336 6.43177 25.56C6.63977 25.776 6.74377 26.048 6.74377 26.376C6.74377 26.688 6.63977 26.952 6.43177 27.168C6.23177 27.376 5.96777 27.48 5.63977 27.48ZM5.49577 72.552C4.33577 72.552 3.34377 72.256 2.51977 71.664C1.70377 71.072 1.07977 70.288 0.64777 69.312C0.21577 68.336 -0.000230432 67.272 -0.000230432 66.12C-0.000230432 64.76 0.22777 63.604 0.68377 62.652C1.13977 61.692 1.77977 60.964 2.60377 60.468C3.42777 59.964 4.39177 59.712 5.49577 59.712C6.39977 59.712 7.23177 59.92 7.99177 60.336C8.75177 60.752 9.35977 61.396 9.81577 62.268C10.2798 63.14 10.5118 64.264 10.5118 65.64C10.5118 65.768 10.5078 65.932 10.4998 66.132C10.4998 66.324 10.4878 66.552 10.4638 66.816H1.34377V65.304H8.80777C8.80777 64.208 8.62777 63.368 8.26777 62.784C7.90777 62.192 7.46777 61.784 6.94777 61.56C6.43577 61.336 5.95177 61.224 5.49577 61.224C4.21577 61.224 3.26777 61.632 2.65177 62.448C2.03577 63.264 1.72777 64.352 1.72777 65.712C1.72777 67.352 2.06777 68.644 2.74777 69.588C3.42777 70.524 4.36777 70.992 5.56777 70.992C6.03977 70.992 6.52377 70.92 7.01977 70.776C7.51577 70.624 8.00777 70.376 8.49577 70.032L9.40777 71.16C8.90377 71.552 8.31177 71.884 7.63177 72.156C6.95177 72.42 6.23977 72.552 5.49577 72.552Z" fill="#3B0000"/>
</svg>
